<svg width="105" height="84" viewBox="0 0 105 84" fill="none" xmlns="http://www.w3.org/2000/svg">
<circle cx="58.1847" cy="41.7994" r="41.7994" fill="#82C8CC"/>
<circle cx="2.50796" cy="25.5812" r="2.50796" fill="#BB6BD9" fill-opacity="0.67"/>
<circle cx="10.199" cy="25.5812" r="2.50796" fill="#BB6BD9" fill-opacity="0.67"/>
<circle cx="17.8902" cy="25.5812" r="2.50796" fill="#BB6BD9" fill-opacity="0.67"/>
<circle cx="25.5812" cy="25.5812" r="2.50796" fill="#BB6BD9" fill-opacity="0.67"/>
<circle cx="33.2722" cy="25.5812" r="2.50796" fill="#BB6BD9" fill-opacity="0.67"/>
<circle cx="40.9634" cy="25.5812" r="2.50796" fill="#BB6BD9" fill-opacity="0.67"/>
<circle cx="48.6544" cy="25.5812" r="2.50796" fill="#BB6BD9" fill-opacity="0.67"/>
<circle cx="56.3455" cy="25.5812" r="2.50796" fill="#BB6BD9" fill-opacity="0.67"/>
<circle cx="64.0367" cy="25.5812" r="2.50796" fill="#BB6BD9" fill-opacity="0.67"/>
<circle cx="71.7277" cy="25.5812" r="2.50796" fill="#BB6BD9" fill-opacity="0.67"/>
<circle cx="79.4189" cy="25.5812" r="2.50796" fill="#BB6BD9" fill-opacity="0.67"/>
<circle cx="87.1099" cy="25.5812" r="2.50796" fill="#BB6BD9" fill-opacity="0.67"/>
<circle cx="94.8009" cy="25.5812" r="2.50796" fill="#BB6BD9" fill-opacity="0.67"/>
<circle cx="102.492" cy="25.5812" r="2.50796" fill="#BB6BD9" fill-opacity="0.67"/>
<circle cx="2.50796" cy="33.2724" r="2.50796" fill="#BB6BD9" fill-opacity="0.67"/>
<circle cx="10.199" cy="33.2724" r="2.50796" fill="#BB6BD9" fill-opacity="0.67"/>
<circle cx="17.8902" cy="33.2724" r="2.50796" fill="#BB6BD9" fill-opacity="0.67"/>
<circle cx="25.5812" cy="33.2724" r="2.50796" fill="#BB6BD9" fill-opacity="0.67"/>
<circle cx="33.2722" cy="33.2724" r="2.50796" fill="#BB6BD9" fill-opacity="0.67"/>
<circle cx="40.9634" cy="33.2724" r="2.50796" fill="#BB6BD9" fill-opacity="0.67"/>
<circle cx="48.6544" cy="33.2724" r="2.50796" fill="#BB6BD9" fill-opacity="0.67"/>
<circle cx="56.3455" cy="33.2724" r="2.50796" fill="#BB6BD9" fill-opacity="0.67"/>
<circle cx="64.0367" cy="33.2724" r="2.50796" fill="#BB6BD9" fill-opacity="0.67"/>
<circle cx="71.7277" cy="33.2724" r="2.50796" fill="#BB6BD9" fill-opacity="0.67"/>
<circle cx="79.4189" cy="33.2724" r="2.50796" fill="#BB6BD9" fill-opacity="0.67"/>
<circle cx="87.1099" cy="33.2724" r="2.50796" fill="#BB6BD9" fill-opacity="0.67"/>
<circle cx="94.8009" cy="33.2724" r="2.50796" fill="#BB6BD9" fill-opacity="0.67"/>
<circle cx="102.492" cy="33.2724" r="2.50796" fill="#BB6BD9" fill-opacity="0.67"/>
<circle cx="2.50796" cy="40.9633" r="2.50796" fill="#BB6BD9" fill-opacity="0.67"/>
<circle cx="10.199" cy="40.9633" r="2.50796" fill="#BB6BD9" fill-opacity="0.67"/>
<circle cx="17.8902" cy="40.9633" r="2.50796" fill="#BB6BD9" fill-opacity="0.67"/>
<circle cx="25.5812" cy="40.9633" r="2.50796" fill="#BB6BD9" fill-opacity="0.67"/>
<circle cx="33.2722" cy="40.9633" r="2.50796" fill="#BB6BD9" fill-opacity="0.67"/>
<circle cx="40.9634" cy="40.9633" r="2.50796" fill="#BB6BD9" fill-opacity="0.67"/>
<circle cx="48.6544" cy="40.9633" r="2.50796" fill="#BB6BD9" fill-opacity="0.67"/>
<circle cx="56.3455" cy="40.9633" r="2.50796" fill="#BB6BD9" fill-opacity="0.67"/>
<circle cx="64.0367" cy="40.9633" r="2.50796" fill="#BB6BD9" fill-opacity="0.67"/>
<circle cx="71.7277" cy="40.9633" r="2.50796" fill="#BB6BD9" fill-opacity="0.67"/>
<circle cx="79.4189" cy="40.9633" r="2.50796" fill="#BB6BD9" fill-opacity="0.67"/>
<circle cx="87.1099" cy="40.9633" r="2.50796" fill="#BB6BD9" fill-opacity="0.67"/>
<circle cx="94.8009" cy="40.9633" r="2.50796" fill="#BB6BD9" fill-opacity="0.67"/>
<circle cx="102.492" cy="40.9633" r="2.50796" fill="#BB6BD9" fill-opacity="0.67"/>
<circle cx="2.50796" cy="48.6544" r="2.50796" fill="#BB6BD9" fill-opacity="0.67"/>
<circle cx="10.199" cy="48.6544" r="2.50796" fill="#BB6BD9" fill-opacity="0.67"/>
<circle cx="17.8902" cy="48.6544" r="2.50796" fill="#BB6BD9" fill-opacity="0.67"/>
<circle cx="25.5812" cy="48.6544" r="2.50796" fill="#BB6BD9" fill-opacity="0.67"/>
<circle cx="33.2722" cy="48.6544" r="2.50796" fill="#BB6BD9" fill-opacity="0.67"/>
<circle cx="40.9634" cy="48.6544" r="2.50796" fill="#BB6BD9" fill-opacity="0.67"/>
<circle cx="48.6544" cy="48.6544" r="2.50796" fill="#BB6BD9" fill-opacity="0.67"/>
<circle cx="56.3455" cy="48.6544" r="2.50796" fill="#BB6BD9" fill-opacity="0.67"/>
<circle cx="64.0367" cy="48.6544" r="2.50796" fill="#BB6BD9" fill-opacity="0.67"/>
<circle cx="71.7277" cy="48.6544" r="2.50796" fill="#BB6BD9" fill-opacity="0.67"/>
<circle cx="79.4189" cy="48.6544" r="2.50796" fill="#BB6BD9" fill-opacity="0.67"/>
<circle cx="87.1099" cy="48.6544" r="2.50796" fill="#BB6BD9" fill-opacity="0.67"/>
<circle cx="94.8009" cy="48.6544" r="2.50796" fill="#BB6BD9" fill-opacity="0.67"/>
<circle cx="102.492" cy="48.6544" r="2.50796" fill="#BB6BD9" fill-opacity="0.67"/>
<circle cx="2.50796" cy="56.3459" r="2.50796" fill="#BB6BD9" fill-opacity="0.67"/>
<circle cx="10.199" cy="56.3456" r="2.50796" fill="#BB6BD9" fill-opacity="0.67"/>
<circle cx="17.8902" cy="56.3456" r="2.50796" fill="#BB6BD9" fill-opacity="0.67"/>
<circle cx="25.5812" cy="56.3456" r="2.50796" fill="#BB6BD9" fill-opacity="0.67"/>
<circle cx="33.2722" cy="56.3456" r="2.50796" fill="#BB6BD9" fill-opacity="0.67"/>
<circle cx="40.9634" cy="56.3456" r="2.50796" fill="#BB6BD9" fill-opacity="0.67"/>
<circle cx="48.6544" cy="56.3456" r="2.50796" fill="#BB6BD9" fill-opacity="0.67"/>
<circle cx="56.3455" cy="56.3456" r="2.50796" fill="#BB6BD9" fill-opacity="0.67"/>
<circle cx="64.0367" cy="56.3456" r="2.50796" fill="#BB6BD9" fill-opacity="0.67"/>
<circle cx="71.7277" cy="56.3456" r="2.50796" fill="#BB6BD9" fill-opacity="0.67"/>
<circle cx="79.4189" cy="56.3456" r="2.50796" fill="#BB6BD9" fill-opacity="0.67"/>
<circle cx="87.1099" cy="56.3456" r="2.50796" fill="#BB6BD9" fill-opacity="0.67"/>
<circle cx="94.8009" cy="56.3456" r="2.50796" fill="#BB6BD9" fill-opacity="0.67"/>
<circle cx="102.492" cy="56.3456" r="2.50796" fill="#BB6BD9" fill-opacity="0.67"/>
<circle cx="2.50796" cy="64.0368" r="2.50796" fill="#BB6BD9" fill-opacity="0.67"/>
<circle cx="10.199" cy="64.0365" r="2.50796" fill="#BB6BD9" fill-opacity="0.67"/>
<circle cx="17.8902" cy="64.0365" r="2.50796" fill="#BB6BD9" fill-opacity="0.67"/>
<circle cx="25.5812" cy="64.0365" r="2.50796" fill="#BB6BD9" fill-opacity="0.67"/>
<circle cx="33.2722" cy="64.0365" r="2.50796" fill="#BB6BD9" fill-opacity="0.67"/>
<circle cx="40.9634" cy="64.0365" r="2.50796" fill="#BB6BD9" fill-opacity="0.67"/>
<circle cx="48.6544" cy="64.0365" r="2.50796" fill="#BB6BD9" fill-opacity="0.67"/>
<circle cx="56.3455" cy="64.0365" r="2.50796" fill="#BB6BD9" fill-opacity="0.67"/>
<circle cx="64.0367" cy="64.0365" r="2.50796" fill="#BB6BD9" fill-opacity="0.67"/>
<circle cx="71.7277" cy="64.0365" r="2.50796" fill="#BB6BD9" fill-opacity="0.67"/>
<circle cx="79.4189" cy="64.0365" r="2.50796" fill="#BB6BD9" fill-opacity="0.67"/>
<circle cx="87.1099" cy="64.0365" r="2.50796" fill="#BB6BD9" fill-opacity="0.67"/>
<circle cx="94.8009" cy="64.0365" r="2.50796" fill="#BB6BD9" fill-opacity="0.67"/>
<circle cx="102.492" cy="64.0365" r="2.50796" fill="#BB6BD9" fill-opacity="0.67"/>
</svg>
